<?xml version="1.0" encoding="UTF-8"?>
<svg id="Layer_1" xmlns="http://www.w3.org/2000/svg" viewBox="0 0 234.94 49.8">
    <defs>
        <style>.cls-1{fill:#a17b5c;}.cls-2{fill:#3f4e4f;}</style>
    </defs>
    <path class="cls-2" d="m19.28,29.13H0V1.18h6.52v22.38h12.76v5.58Z"/>
    <path class="cls-2"
          d="m23.18,28.09c-1.27-1.03-1.9-2.44-1.9-4.22,0-3.79,3.17-6.09,9.5-6.87l4.28-.51v-.82c0-.97-.32-1.75-.96-2.34-.64-.59-1.54-.88-2.69-.88-1.07,0-1.94.28-2.59.84-.65.56-.97,1.34-.94,2.34h-5.69c0-2.2.84-3.95,2.53-5.26,1.69-1.31,3.95-1.96,6.77-1.96s5.13.67,6.83,2.02c1.7,1.35,2.55,3.16,2.55,5.44v13.27h-5.81v-2.55h-.39c-.63,1-1.5,1.75-2.61,2.28-1.11.52-2.39.79-3.83.79-2.09,0-3.78-.52-5.04-1.55Zm10.5-3.51c.92-.84,1.37-1.88,1.37-3.14v-1.41l-4.12.51c-1.36.16-2.36.49-3,1-.64.51-.96,1.13-.96,1.87s.28,1.35.84,1.79c.56.43,1.34.65,2.34.65,1.44,0,2.62-.42,3.53-1.26Z"/>
    <path class="cls-2"
          d="m46.76,27.86c-1.7-1.32-2.55-3.13-2.55-5.44h5.14c0,1.07.41,1.94,1.24,2.59.82.65,1.94.98,3.36.98,1.1,0,1.98-.22,2.65-.67s1-1.05,1-1.81c0-.84-.37-1.39-1.1-1.67-.73-.28-1.87-.49-3.42-.65-1.7-.18-3.14-.42-4.3-.73-1.17-.3-2.18-.88-3.04-1.75-.86-.86-1.3-2.09-1.3-3.69,0-2.04.82-3.67,2.45-4.89,1.64-1.22,3.8-1.83,6.5-1.83,1.78,0,3.38.27,4.79.82s2.51,1.34,3.3,2.38c.79,1.03,1.18,2.23,1.18,3.59h-5.3c-.03-.89-.4-1.6-1.12-2.14-.72-.54-1.67-.8-2.85-.8-1.07,0-1.94.22-2.59.65-.65.43-.98,1.01-.98,1.75,0,.58.23,1.01.69,1.31.46.3.98.5,1.57.61.59.1,1.59.24,3,.39,1.54.18,2.9.45,4.06.81,1.16.35,2.15.96,2.94,1.81.8.85,1.2,2.02,1.2,3.51,0,2.15-.84,3.82-2.53,5.03-1.69,1.2-4.01,1.81-6.97,1.81s-5.33-.66-7.03-1.98Z"/>
    <path class="cls-2"
          d="m70.32,27.8c-1.2-1.31-1.81-3.02-1.81-5.14v-9.38h-2.83v-4.24h2.98l1.14-6.36h4.55l-.04,6.36h4.59v4.24h-4.59v9.15c0,.86.24,1.55.73,2.06.48.51,1.13.77,1.94.77.6,0,1.3-.09,2.08-.27v4.16c-.55.18-1.19.33-1.92.45-.73.12-1.4.18-2,.18-2.02,0-3.63-.65-4.83-1.96Z"/>
    <path class="cls-2"
          d="m83.41,28.09c-1.27-1.03-1.9-2.44-1.9-4.22,0-3.79,3.17-6.09,9.5-6.87l4.28-.51v-.82c0-.97-.32-1.75-.96-2.34-.64-.59-1.54-.88-2.69-.88-1.07,0-1.94.28-2.59.84-.65.56-.97,1.34-.94,2.34h-5.69c0-2.2.84-3.95,2.53-5.26,1.69-1.31,3.95-1.96,6.77-1.96s5.13.67,6.83,2.02c1.7,1.35,2.55,3.16,2.55,5.44v13.27h-5.81v-2.55h-.39c-.63,1-1.5,1.75-2.61,2.28-1.11.52-2.39.79-3.83.79-2.09,0-3.78-.52-5.04-1.55Zm10.5-3.51c.92-.84,1.37-1.88,1.37-3.14v-1.41l-4.12.51c-1.36.16-2.36.49-3,1-.64.51-.96,1.13-.96,1.87s.28,1.35.84,1.79c.56.43,1.34.65,2.34.65,1.44,0,2.62-.42,3.53-1.26Z"/>
    <path class="cls-2"
          d="m124.58,9.03v20.1h-5.81v-2.83h-.39c-1.49,2.28-3.44,3.42-5.85,3.42-1.49,0-2.81-.36-3.97-1.08-1.15-.72-2.04-1.71-2.67-2.98-.63-1.27-.94-2.7-.94-4.3v-12.33h5.81v11.5c0,1.26.34,2.27,1.02,3.04.68.77,1.6,1.16,2.75,1.16s2.18-.42,3-1.26,1.24-1.88,1.24-3.14v-11.31h5.81Z"/>
    <path class="cls-2"
          d="m130.78,27.86c-1.7-1.32-2.55-3.13-2.55-5.44h5.14c0,1.07.41,1.94,1.24,2.59.83.65,1.94.98,3.36.98,1.1,0,1.98-.22,2.65-.67s1-1.05,1-1.81c0-.84-.37-1.39-1.1-1.67-.73-.28-1.87-.49-3.42-.65-1.7-.18-3.13-.42-4.3-.73-1.17-.3-2.18-.88-3.04-1.75-.86-.86-1.3-2.09-1.3-3.69,0-2.04.82-3.67,2.46-4.89,1.63-1.22,3.8-1.83,6.5-1.83,1.78,0,3.38.27,4.79.82,1.41.55,2.51,1.34,3.3,2.38.79,1.03,1.18,2.23,1.18,3.59h-5.3c-.03-.89-.4-1.6-1.12-2.14-.72-.54-1.67-.8-2.85-.8-1.07,0-1.94.22-2.59.65-.65.43-.98,1.01-.98,1.75,0,.58.23,1.01.69,1.31.46.3.98.5,1.57.61.59.1,1.59.24,3,.39,1.54.18,2.9.45,4.06.81,1.16.35,2.15.96,2.94,1.81.8.85,1.2,2.02,1.2,3.51,0,2.15-.84,3.82-2.53,5.03-1.69,1.2-4.01,1.81-6.97,1.81s-5.33-.66-7.03-1.98Z"/>
    <path class="cls-2"
          d="m156.81,29.13h-5.81V0h5.81v16.84h.39l6.44-7.81h7.03l-8.36,9.66,8.52,10.44h-7.07l-6.56-8.56h-.39v8.56Z"/>
    <path class="cls-2"
          d="m173.21,28.09c-1.27-1.03-1.9-2.44-1.9-4.22,0-3.79,3.17-6.09,9.5-6.87l4.28-.51v-.82c0-.97-.32-1.75-.96-2.34-.64-.59-1.54-.88-2.69-.88-1.07,0-1.94.28-2.59.84-.65.56-.97,1.34-.94,2.34h-5.69c0-2.2.84-3.95,2.53-5.26,1.69-1.31,3.95-1.96,6.77-1.96s5.13.67,6.83,2.02c1.7,1.35,2.55,3.16,2.55,5.44v13.27h-5.81v-2.55h-.39c-.63,1-1.5,1.75-2.61,2.28-1.11.52-2.39.79-3.83.79-2.09,0-3.78-.52-5.04-1.55Zm10.5-3.51c.92-.84,1.37-1.88,1.37-3.14v-1.41l-4.12.51c-1.36.16-2.36.49-3,1-.64.51-.96,1.13-.96,1.87s.28,1.35.84,1.79c.56.43,1.34.65,2.34.65,1.44,0,2.62-.42,3.53-1.26Z"/>
    <path class="cls-2"
          d="m196.78,27.86c-1.7-1.32-2.55-3.13-2.55-5.44h5.14c0,1.07.41,1.94,1.24,2.59.83.65,1.94.98,3.36.98,1.1,0,1.98-.22,2.65-.67.67-.45,1-1.05,1-1.81,0-.84-.37-1.39-1.1-1.67-.73-.28-1.87-.49-3.42-.65-1.7-.18-3.13-.42-4.3-.73-1.17-.3-2.18-.88-3.04-1.75-.86-.86-1.3-2.09-1.3-3.69,0-2.04.82-3.67,2.45-4.89,1.63-1.22,3.8-1.83,6.5-1.83,1.78,0,3.38.27,4.79.82s2.51,1.34,3.3,2.38c.79,1.03,1.18,2.23,1.18,3.59h-5.3c-.03-.89-.4-1.6-1.12-2.14-.72-.54-1.67-.8-2.85-.8-1.07,0-1.94.22-2.59.65-.65.43-.98,1.01-.98,1.75,0,.58.23,1.01.69,1.31.46.3.98.5,1.57.61.59.1,1.59.24,3,.39,1.54.18,2.9.45,4.06.81,1.16.35,2.15.96,2.95,1.81.8.85,1.2,2.02,1.2,3.51,0,2.15-.84,3.82-2.53,5.03-1.69,1.2-4.01,1.81-6.97,1.81s-5.33-.66-7.03-1.98Z"/>
    <path class="cls-1" d="m221.31,16.41l13.63,13.63-19.77,19.77-4.61-4.61,15.82-15.83-9.02-9.02,3.94-3.94Z"/>
</svg>